<svg id="bz-logo" xmlns="http://www.w3.org/2000/svg" viewBox="0 0 200 200">
  <defs>
    <style>
      .cls-1 {
        fill: #00226a;
      }

      .cls-2 {
        fill: none;
      }
    </style>
  </defs>
  <title>bz-logo</title>
  <g id="bz">
    <path id="b" class="cls-1" d="M57.6,163.4c-24.2,0-37.2-11.4-39.2-13.2V40.4l17.8-3.8V94.8c4.4-9.6,13-17.2,26.4-17.2C87,77.6,99.8,96,99.8,120.2S85,163.4,57.6,163.4Zm2.2-69.8c-14.8,0-23.6,12.8-23.6,33.8v14.8c2.2,1.4,8.2,5.6,20.8,5.6,16.2,0,24.6-13.2,24.6-27.8C81.6,104.8,75.2,93.6,59.8,93.6Z"/>
    <path id="z" class="cls-1" d="M138.2,145.8h49.4l-4.2,16.6H107.2l45-67.2h-39l4.2-16.4h66Z"/>
  </g>
  <rect id="plate" class="cls-2" width="200" height="200"/>
</svg>
